<mxfile host="app.diagrams.net" modified="2022-09-08T19:03:51.668Z" agent="5.0 (Windows NT 10.0; Win64; x64) AppleWebKit/537.36 (KHTML, like Gecko) Chrome/104.0.0.0 Safari/537.36" etag="_VqG3lRQuVRV09x5A6fK" version="20.3.0" type="github">
  <diagram id="_LVw10evDsYW4SWZSBmD" name="Page-1">
    <mxGraphModel dx="629" dy="332" grid="1" gridSize="10" guides="1" tooltips="1" connect="1" arrows="1" fold="1" page="1" pageScale="1" pageWidth="827" pageHeight="1169" math="0" shadow="0">
      <root>
        <mxCell id="0" />
        <mxCell id="1" parent="0" />
        <mxCell id="bl7M4E7-hmx5ia5RoY4Y-1" value="Menneske" style="rounded=0;whiteSpace=wrap;html=1;" vertex="1" parent="1">
          <mxGeometry x="160" y="240" width="90" height="30" as="geometry" />
        </mxCell>
        <mxCell id="bl7M4E7-hmx5ia5RoY4Y-3" style="edgeStyle=orthogonalEdgeStyle;rounded=0;orthogonalLoop=1;jettySize=auto;html=1;exitX=0.5;exitY=1;exitDx=0;exitDy=0;entryX=0.5;entryY=1;entryDx=0;entryDy=0;" edge="1" parent="1" source="bl7M4E7-hmx5ia5RoY4Y-2" target="bl7M4E7-hmx5ia5RoY4Y-2">
          <mxGeometry relative="1" as="geometry">
            <mxPoint x="290" y="170" as="targetPoint" />
          </mxGeometry>
        </mxCell>
        <mxCell id="bl7M4E7-hmx5ia5RoY4Y-2" value="&lt;u&gt;Personnummer&lt;/u&gt;" style="ellipse;whiteSpace=wrap;html=1;" vertex="1" parent="1">
          <mxGeometry x="380" y="160" width="100" height="30" as="geometry" />
        </mxCell>
        <mxCell id="bl7M4E7-hmx5ia5RoY4Y-4" value="" style="endArrow=none;html=1;rounded=0;exitX=0.75;exitY=0;exitDx=0;exitDy=0;entryX=0.5;entryY=1;entryDx=0;entryDy=0;" edge="1" parent="1" source="bl7M4E7-hmx5ia5RoY4Y-1" target="bl7M4E7-hmx5ia5RoY4Y-2">
          <mxGeometry width="50" height="50" relative="1" as="geometry">
            <mxPoint x="390" y="310" as="sourcePoint" />
            <mxPoint x="440" y="260" as="targetPoint" />
            <Array as="points" />
          </mxGeometry>
        </mxCell>
        <mxCell id="bl7M4E7-hmx5ia5RoY4Y-5" value="Navn" style="ellipse;whiteSpace=wrap;html=1;" vertex="1" parent="1">
          <mxGeometry x="155" y="130" width="100" height="40" as="geometry" />
        </mxCell>
        <mxCell id="bl7M4E7-hmx5ia5RoY4Y-6" value="Navn" style="ellipse;whiteSpace=wrap;html=1;" vertex="1" parent="1">
          <mxGeometry x="160" y="135" width="85" height="25" as="geometry" />
        </mxCell>
        <mxCell id="bl7M4E7-hmx5ia5RoY4Y-7" value="" style="endArrow=none;html=1;rounded=0;exitX=1;exitY=0;exitDx=0;exitDy=0;" edge="1" parent="1" source="bl7M4E7-hmx5ia5RoY4Y-5">
          <mxGeometry width="50" height="50" relative="1" as="geometry">
            <mxPoint x="390" y="310" as="sourcePoint" />
            <mxPoint x="300" y="40" as="targetPoint" />
          </mxGeometry>
        </mxCell>
        <mxCell id="bl7M4E7-hmx5ia5RoY4Y-8" value="Etternavn" style="ellipse;whiteSpace=wrap;html=1;" vertex="1" parent="1">
          <mxGeometry x="260" y="10" width="90" height="30" as="geometry" />
        </mxCell>
        <mxCell id="bl7M4E7-hmx5ia5RoY4Y-9" value="Fornavn" style="ellipse;whiteSpace=wrap;html=1;" vertex="1" parent="1">
          <mxGeometry x="100" y="10" width="90" height="30" as="geometry" />
        </mxCell>
        <mxCell id="bl7M4E7-hmx5ia5RoY4Y-10" value="" style="endArrow=none;html=1;rounded=0;entryX=0.5;entryY=1;entryDx=0;entryDy=0;exitX=0;exitY=0;exitDx=0;exitDy=0;" edge="1" parent="1" source="bl7M4E7-hmx5ia5RoY4Y-5" target="bl7M4E7-hmx5ia5RoY4Y-9">
          <mxGeometry width="50" height="50" relative="1" as="geometry">
            <mxPoint x="270" y="160" as="sourcePoint" />
            <mxPoint x="320" y="110" as="targetPoint" />
          </mxGeometry>
        </mxCell>
        <mxCell id="bl7M4E7-hmx5ia5RoY4Y-11" value="" style="endArrow=none;html=1;rounded=0;exitX=0.5;exitY=0;exitDx=0;exitDy=0;entryX=0.5;entryY=1;entryDx=0;entryDy=0;" edge="1" parent="1" source="bl7M4E7-hmx5ia5RoY4Y-1" target="bl7M4E7-hmx5ia5RoY4Y-5">
          <mxGeometry width="50" height="50" relative="1" as="geometry">
            <mxPoint x="270" y="160" as="sourcePoint" />
            <mxPoint x="320" y="110" as="targetPoint" />
          </mxGeometry>
        </mxCell>
        <mxCell id="bl7M4E7-hmx5ia5RoY4Y-12" value="FÃ¸dselsdato" style="ellipse;whiteSpace=wrap;html=1;" vertex="1" parent="1">
          <mxGeometry x="10" y="160" width="120" height="35" as="geometry" />
        </mxCell>
        <mxCell id="bl7M4E7-hmx5ia5RoY4Y-13" value="" style="endArrow=none;html=1;rounded=0;exitX=0.25;exitY=0;exitDx=0;exitDy=0;entryX=1;entryY=1;entryDx=0;entryDy=0;" edge="1" parent="1" source="bl7M4E7-hmx5ia5RoY4Y-1" target="bl7M4E7-hmx5ia5RoY4Y-12">
          <mxGeometry width="50" height="50" relative="1" as="geometry">
            <mxPoint x="270" y="160" as="sourcePoint" />
            <mxPoint x="70" y="210" as="targetPoint" />
          </mxGeometry>
        </mxCell>
        <mxCell id="bl7M4E7-hmx5ia5RoY4Y-14" value="Alder" style="ellipse;whiteSpace=wrap;html=1;" vertex="1" parent="1">
          <mxGeometry x="25" y="320" width="90" height="40" as="geometry" />
        </mxCell>
        <mxCell id="bl7M4E7-hmx5ia5RoY4Y-15" value="" style="endArrow=none;html=1;rounded=0;exitX=0.5;exitY=0;exitDx=0;exitDy=0;entryX=0.5;entryY=1;entryDx=0;entryDy=0;" edge="1" parent="1" source="bl7M4E7-hmx5ia5RoY4Y-14" target="bl7M4E7-hmx5ia5RoY4Y-12">
          <mxGeometry width="50" height="50" relative="1" as="geometry">
            <mxPoint x="270" y="180" as="sourcePoint" />
            <mxPoint x="70" y="270" as="targetPoint" />
          </mxGeometry>
        </mxCell>
        <mxCell id="bl7M4E7-hmx5ia5RoY4Y-16" value="Bor" style="rhombus;whiteSpace=wrap;html=1;" vertex="1" parent="1">
          <mxGeometry x="165" y="310" width="80" height="80" as="geometry" />
        </mxCell>
        <mxCell id="bl7M4E7-hmx5ia5RoY4Y-17" value="" style="endArrow=none;html=1;rounded=0;entryX=0.5;entryY=1;entryDx=0;entryDy=0;exitX=0.5;exitY=0;exitDx=0;exitDy=0;" edge="1" parent="1" source="bl7M4E7-hmx5ia5RoY4Y-16" target="bl7M4E7-hmx5ia5RoY4Y-1">
          <mxGeometry width="50" height="50" relative="1" as="geometry">
            <mxPoint x="270" y="330" as="sourcePoint" />
            <mxPoint x="320" y="280" as="targetPoint" />
          </mxGeometry>
        </mxCell>
        <mxCell id="bl7M4E7-hmx5ia5RoY4Y-18" value="Bolig" style="rounded=0;whiteSpace=wrap;html=1;" vertex="1" parent="1">
          <mxGeometry x="330" y="335" width="90" height="30" as="geometry" />
        </mxCell>
        <mxCell id="bl7M4E7-hmx5ia5RoY4Y-19" value="" style="endArrow=none;html=1;rounded=0;exitX=1;exitY=0.5;exitDx=0;exitDy=0;entryX=0;entryY=0.5;entryDx=0;entryDy=0;" edge="1" parent="1" source="bl7M4E7-hmx5ia5RoY4Y-16" target="bl7M4E7-hmx5ia5RoY4Y-18">
          <mxGeometry width="50" height="50" relative="1" as="geometry">
            <mxPoint x="270" y="330" as="sourcePoint" />
            <mxPoint x="320" y="280" as="targetPoint" />
          </mxGeometry>
        </mxCell>
        <mxCell id="bl7M4E7-hmx5ia5RoY4Y-20" value="&lt;font size=&quot;3&quot;&gt;1&lt;/font&gt;" style="text;strokeColor=none;fillColor=none;html=1;fontSize=24;fontStyle=1;verticalAlign=middle;align=center;" vertex="1" parent="1">
          <mxGeometry x="200" y="290" width="40" height="20" as="geometry" />
        </mxCell>
        <mxCell id="bl7M4E7-hmx5ia5RoY4Y-21" value="&lt;span style=&quot;font-size: 12px;&quot;&gt;N&lt;/span&gt;" style="text;strokeColor=none;fillColor=none;html=1;fontSize=24;fontStyle=1;verticalAlign=middle;align=center;" vertex="1" parent="1">
          <mxGeometry x="200" y="310" width="100" height="40" as="geometry" />
        </mxCell>
        <mxCell id="bl7M4E7-hmx5ia5RoY4Y-22" value="Adresse" style="ellipse;whiteSpace=wrap;html=1;align=center;fontStyle=4;fontSize=12;" vertex="1" parent="1">
          <mxGeometry x="335" y="280" width="80" height="30" as="geometry" />
        </mxCell>
        <mxCell id="bl7M4E7-hmx5ia5RoY4Y-23" value="" style="endArrow=none;html=1;rounded=0;fontSize=12;exitX=0.5;exitY=0;exitDx=0;exitDy=0;entryX=0.5;entryY=1;entryDx=0;entryDy=0;" edge="1" parent="1" source="bl7M4E7-hmx5ia5RoY4Y-18" target="bl7M4E7-hmx5ia5RoY4Y-22">
          <mxGeometry relative="1" as="geometry">
            <mxPoint x="210" y="300" as="sourcePoint" />
            <mxPoint x="370" y="310" as="targetPoint" />
          </mxGeometry>
        </mxCell>
        <mxCell id="bl7M4E7-hmx5ia5RoY4Y-26" value="Type" style="ellipse;whiteSpace=wrap;html=1;align=center;fontSize=12;" vertex="1" parent="1">
          <mxGeometry x="460" y="335" width="90" height="30" as="geometry" />
        </mxCell>
        <mxCell id="bl7M4E7-hmx5ia5RoY4Y-27" value="" style="endArrow=none;html=1;rounded=0;fontSize=12;exitX=1;exitY=0.5;exitDx=0;exitDy=0;entryX=0;entryY=0.5;entryDx=0;entryDy=0;" edge="1" parent="1" source="bl7M4E7-hmx5ia5RoY4Y-18" target="bl7M4E7-hmx5ia5RoY4Y-26">
          <mxGeometry relative="1" as="geometry">
            <mxPoint x="210" y="300" as="sourcePoint" />
            <mxPoint x="370" y="300" as="targetPoint" />
          </mxGeometry>
        </mxCell>
      </root>
    </mxGraphModel>
  </diagram>
</mxfile>
